<mxfile host="app.diagrams.net" modified="2023-01-01T14:33:18.941Z" agent="5.0 (Windows NT 10.0; WOW64) AppleWebKit/537.36 (KHTML, like Gecko) Chrome/86.0.4240.198 Safari/537.36" etag="85zH8qylhSJEWKt7NQUQ" version="20.5.3" type="github">
  <diagram id="RbWwaUtCM0gXpG9aIwTm" name="第 1 页">
    <mxGraphModel dx="1182" dy="732" grid="1" gridSize="10" guides="1" tooltips="1" connect="1" arrows="1" fold="1" page="1" pageScale="1" pageWidth="827" pageHeight="1169" math="0" shadow="0">
      <root>
        <mxCell id="0" />
        <mxCell id="1" parent="0" />
        <mxCell id="zauIGiu-Af3dXEBVpL37-1" value="" style="endArrow=classic;html=1;rounded=0;" edge="1" parent="1">
          <mxGeometry width="50" height="50" relative="1" as="geometry">
            <mxPoint x="190" y="360" as="sourcePoint" />
            <mxPoint x="490" y="360" as="targetPoint" />
          </mxGeometry>
        </mxCell>
        <mxCell id="zauIGiu-Af3dXEBVpL37-2" value="" style="endArrow=classic;html=1;rounded=0;" edge="1" parent="1">
          <mxGeometry width="50" height="50" relative="1" as="geometry">
            <mxPoint x="200" y="370" as="sourcePoint" />
            <mxPoint x="200" y="200" as="targetPoint" />
          </mxGeometry>
        </mxCell>
        <mxCell id="zauIGiu-Af3dXEBVpL37-32" value="" style="rounded=0;whiteSpace=wrap;html=1;fillStyle=auto;strokeColor=#006EAF;fillColor=#1ba1e2;fontColor=#ffffff;" vertex="1" parent="1">
          <mxGeometry x="200" y="260" width="240" height="100" as="geometry" />
        </mxCell>
        <mxCell id="zauIGiu-Af3dXEBVpL37-33" value="" style="endArrow=none;dashed=1;html=1;dashPattern=1 3;strokeWidth=2;rounded=0;exitX=0;exitY=0.25;exitDx=0;exitDy=0;entryX=1;entryY=0.25;entryDx=0;entryDy=0;" edge="1" parent="1" source="zauIGiu-Af3dXEBVpL37-32" target="zauIGiu-Af3dXEBVpL37-32">
          <mxGeometry width="50" height="50" relative="1" as="geometry">
            <mxPoint x="390" y="500" as="sourcePoint" />
            <mxPoint x="440" y="450" as="targetPoint" />
          </mxGeometry>
        </mxCell>
        <mxCell id="zauIGiu-Af3dXEBVpL37-34" value="" style="endArrow=none;html=1;rounded=0;strokeWidth=5;entryX=1;entryY=0;entryDx=0;entryDy=0;" edge="1" parent="1" target="zauIGiu-Af3dXEBVpL37-32">
          <mxGeometry width="50" height="50" relative="1" as="geometry">
            <mxPoint x="200" y="260" as="sourcePoint" />
            <mxPoint x="250" y="210" as="targetPoint" />
          </mxGeometry>
        </mxCell>
        <mxCell id="zauIGiu-Af3dXEBVpL37-35" value="" style="endArrow=none;html=1;rounded=0;strokeWidth=1;exitX=0.5;exitY=1;exitDx=0;exitDy=0;" edge="1" parent="1" source="zauIGiu-Af3dXEBVpL37-32">
          <mxGeometry width="50" height="50" relative="1" as="geometry">
            <mxPoint x="280" y="340" as="sourcePoint" />
            <mxPoint x="320" y="260" as="targetPoint" />
          </mxGeometry>
        </mxCell>
        <mxCell id="zauIGiu-Af3dXEBVpL37-36" value="" style="endArrow=none;html=1;rounded=0;strokeWidth=1;exitX=0.692;exitY=1;exitDx=0;exitDy=0;exitPerimeter=0;" edge="1" parent="1" source="zauIGiu-Af3dXEBVpL37-32">
          <mxGeometry width="50" height="50" relative="1" as="geometry">
            <mxPoint x="350" y="350" as="sourcePoint" />
            <mxPoint x="320" y="260" as="targetPoint" />
          </mxGeometry>
        </mxCell>
        <mxCell id="zauIGiu-Af3dXEBVpL37-37" value="" style="endArrow=classic;html=1;rounded=0;strokeWidth=1;" edge="1" parent="1">
          <mxGeometry width="50" height="50" relative="1" as="geometry">
            <mxPoint x="320" y="300" as="sourcePoint" />
            <mxPoint x="340" y="300" as="targetPoint" />
          </mxGeometry>
        </mxCell>
        <mxCell id="zauIGiu-Af3dXEBVpL37-38" value="" style="endArrow=classic;html=1;rounded=0;strokeWidth=1;" edge="1" parent="1">
          <mxGeometry width="50" height="50" relative="1" as="geometry">
            <mxPoint x="320" y="320" as="sourcePoint" />
            <mxPoint x="350" y="320" as="targetPoint" />
          </mxGeometry>
        </mxCell>
        <mxCell id="zauIGiu-Af3dXEBVpL37-39" value="" style="endArrow=classic;html=1;rounded=0;strokeWidth=1;" edge="1" parent="1">
          <mxGeometry width="50" height="50" relative="1" as="geometry">
            <mxPoint x="320" y="340" as="sourcePoint" />
            <mxPoint x="360" y="340" as="targetPoint" />
          </mxGeometry>
        </mxCell>
        <mxCell id="zauIGiu-Af3dXEBVpL37-54" value="" style="group" vertex="1" connectable="0" parent="1">
          <mxGeometry x="230" y="310" width="20" height="7.5" as="geometry" />
        </mxCell>
        <mxCell id="zauIGiu-Af3dXEBVpL37-55" value="" style="ellipse;whiteSpace=wrap;html=1;aspect=fixed;fillStyle=auto;" vertex="1" parent="zauIGiu-Af3dXEBVpL37-54">
          <mxGeometry y="4.5" width="3" height="3" as="geometry" />
        </mxCell>
        <mxCell id="zauIGiu-Af3dXEBVpL37-56" value="" style="ellipse;whiteSpace=wrap;html=1;aspect=fixed;fillStyle=auto;" vertex="1" parent="zauIGiu-Af3dXEBVpL37-54">
          <mxGeometry x="14.285714285714285" width="3" height="3" as="geometry" />
        </mxCell>
        <mxCell id="zauIGiu-Af3dXEBVpL37-57" value="" style="endArrow=none;html=1;rounded=0;strokeWidth=1;entryX=0;entryY=1;entryDx=0;entryDy=0;exitX=1;exitY=0;exitDx=0;exitDy=0;" edge="1" parent="zauIGiu-Af3dXEBVpL37-54" source="zauIGiu-Af3dXEBVpL37-55" target="zauIGiu-Af3dXEBVpL37-56">
          <mxGeometry width="50" height="50" relative="1" as="geometry">
            <mxPoint x="5.7142857142857135" y="4.5" as="sourcePoint" />
            <mxPoint x="11.428571428571427" y="1.5" as="targetPoint" />
          </mxGeometry>
        </mxCell>
        <mxCell id="zauIGiu-Af3dXEBVpL37-62" value="" style="group" vertex="1" connectable="0" parent="1">
          <mxGeometry x="240" y="320" width="20" height="7.5" as="geometry" />
        </mxCell>
        <mxCell id="zauIGiu-Af3dXEBVpL37-63" value="" style="ellipse;whiteSpace=wrap;html=1;aspect=fixed;fillStyle=auto;" vertex="1" parent="zauIGiu-Af3dXEBVpL37-62">
          <mxGeometry y="4.5" width="3" height="3" as="geometry" />
        </mxCell>
        <mxCell id="zauIGiu-Af3dXEBVpL37-64" value="" style="ellipse;whiteSpace=wrap;html=1;aspect=fixed;fillStyle=auto;" vertex="1" parent="zauIGiu-Af3dXEBVpL37-62">
          <mxGeometry x="14.285714285714285" width="3" height="3" as="geometry" />
        </mxCell>
        <mxCell id="zauIGiu-Af3dXEBVpL37-65" value="" style="endArrow=none;html=1;rounded=0;strokeWidth=1;entryX=0;entryY=1;entryDx=0;entryDy=0;exitX=1;exitY=0;exitDx=0;exitDy=0;" edge="1" parent="zauIGiu-Af3dXEBVpL37-62" source="zauIGiu-Af3dXEBVpL37-63" target="zauIGiu-Af3dXEBVpL37-64">
          <mxGeometry width="50" height="50" relative="1" as="geometry">
            <mxPoint x="5.7142857142857135" y="4.5" as="sourcePoint" />
            <mxPoint x="11.428571428571427" y="1.5" as="targetPoint" />
          </mxGeometry>
        </mxCell>
        <mxCell id="zauIGiu-Af3dXEBVpL37-66" value="" style="group;rotation=90;" vertex="1" connectable="0" parent="1">
          <mxGeometry x="250" y="330" width="20" height="7.5" as="geometry" />
        </mxCell>
        <mxCell id="zauIGiu-Af3dXEBVpL37-67" value="" style="ellipse;whiteSpace=wrap;html=1;aspect=fixed;fillStyle=auto;" vertex="1" parent="zauIGiu-Af3dXEBVpL37-66">
          <mxGeometry y="4.5" width="3" height="3" as="geometry" />
        </mxCell>
        <mxCell id="zauIGiu-Af3dXEBVpL37-68" value="" style="ellipse;whiteSpace=wrap;html=1;aspect=fixed;fillStyle=auto;" vertex="1" parent="zauIGiu-Af3dXEBVpL37-66">
          <mxGeometry x="14.285714285714285" width="3" height="3" as="geometry" />
        </mxCell>
        <mxCell id="zauIGiu-Af3dXEBVpL37-69" value="" style="endArrow=none;html=1;rounded=0;strokeWidth=1;entryX=0;entryY=1;entryDx=0;entryDy=0;exitX=1;exitY=0;exitDx=0;exitDy=0;" edge="1" parent="zauIGiu-Af3dXEBVpL37-66" source="zauIGiu-Af3dXEBVpL37-67" target="zauIGiu-Af3dXEBVpL37-68">
          <mxGeometry width="50" height="50" relative="1" as="geometry">
            <mxPoint x="5.7142857142857135" y="4.5" as="sourcePoint" />
            <mxPoint x="11.428571428571427" y="1.5" as="targetPoint" />
          </mxGeometry>
        </mxCell>
        <mxCell id="zauIGiu-Af3dXEBVpL37-70" value="" style="group" vertex="1" connectable="0" parent="1">
          <mxGeometry x="260" y="330" width="20" height="17.5" as="geometry" />
        </mxCell>
        <mxCell id="zauIGiu-Af3dXEBVpL37-71" value="" style="ellipse;whiteSpace=wrap;html=1;aspect=fixed;fillStyle=auto;" vertex="1" parent="zauIGiu-Af3dXEBVpL37-70">
          <mxGeometry y="10.5" width="3" height="3" as="geometry" />
        </mxCell>
        <mxCell id="zauIGiu-Af3dXEBVpL37-72" value="" style="ellipse;whiteSpace=wrap;html=1;aspect=fixed;fillStyle=auto;" vertex="1" parent="zauIGiu-Af3dXEBVpL37-70">
          <mxGeometry x="14.285714285714285" width="3" height="3" as="geometry" />
        </mxCell>
        <mxCell id="zauIGiu-Af3dXEBVpL37-73" value="" style="endArrow=none;html=1;rounded=0;strokeWidth=1;entryX=0;entryY=1;entryDx=0;entryDy=0;exitX=1;exitY=0;exitDx=0;exitDy=0;" edge="1" parent="zauIGiu-Af3dXEBVpL37-70" source="zauIGiu-Af3dXEBVpL37-71" target="zauIGiu-Af3dXEBVpL37-72">
          <mxGeometry width="50" height="50" relative="1" as="geometry">
            <mxPoint x="5.7142857142857135" y="10.5" as="sourcePoint" />
            <mxPoint x="11.428571428571427" y="3.5" as="targetPoint" />
          </mxGeometry>
        </mxCell>
        <mxCell id="zauIGiu-Af3dXEBVpL37-74" value="" style="group" vertex="1" connectable="0" parent="1">
          <mxGeometry x="270" y="350" width="20" height="7.5" as="geometry" />
        </mxCell>
        <mxCell id="zauIGiu-Af3dXEBVpL37-75" value="" style="ellipse;whiteSpace=wrap;html=1;aspect=fixed;fillStyle=auto;" vertex="1" parent="zauIGiu-Af3dXEBVpL37-74">
          <mxGeometry y="4.5" width="3" height="3" as="geometry" />
        </mxCell>
        <mxCell id="zauIGiu-Af3dXEBVpL37-76" value="" style="ellipse;whiteSpace=wrap;html=1;aspect=fixed;fillStyle=auto;" vertex="1" parent="zauIGiu-Af3dXEBVpL37-74">
          <mxGeometry x="14.285714285714285" width="3" height="3" as="geometry" />
        </mxCell>
        <mxCell id="zauIGiu-Af3dXEBVpL37-77" value="" style="endArrow=none;html=1;rounded=0;strokeWidth=1;entryX=0;entryY=1;entryDx=0;entryDy=0;exitX=1;exitY=0;exitDx=0;exitDy=0;" edge="1" parent="zauIGiu-Af3dXEBVpL37-74" source="zauIGiu-Af3dXEBVpL37-75" target="zauIGiu-Af3dXEBVpL37-76">
          <mxGeometry width="50" height="50" relative="1" as="geometry">
            <mxPoint x="5.7142857142857135" y="4.5" as="sourcePoint" />
            <mxPoint x="11.428571428571427" y="1.5" as="targetPoint" />
          </mxGeometry>
        </mxCell>
        <mxCell id="zauIGiu-Af3dXEBVpL37-78" value="" style="group" vertex="1" connectable="0" parent="1">
          <mxGeometry x="290" y="322.5" width="20" height="7.5" as="geometry" />
        </mxCell>
        <mxCell id="zauIGiu-Af3dXEBVpL37-79" value="" style="ellipse;whiteSpace=wrap;html=1;aspect=fixed;fillStyle=auto;" vertex="1" parent="zauIGiu-Af3dXEBVpL37-78">
          <mxGeometry y="4.5" width="3" height="3" as="geometry" />
        </mxCell>
        <mxCell id="zauIGiu-Af3dXEBVpL37-80" value="" style="ellipse;whiteSpace=wrap;html=1;aspect=fixed;fillStyle=auto;" vertex="1" parent="zauIGiu-Af3dXEBVpL37-78">
          <mxGeometry x="14.285714285714285" width="3" height="3" as="geometry" />
        </mxCell>
        <mxCell id="zauIGiu-Af3dXEBVpL37-81" value="" style="endArrow=none;html=1;rounded=0;strokeWidth=1;entryX=0;entryY=1;entryDx=0;entryDy=0;exitX=1;exitY=0;exitDx=0;exitDy=0;" edge="1" parent="zauIGiu-Af3dXEBVpL37-78" source="zauIGiu-Af3dXEBVpL37-79" target="zauIGiu-Af3dXEBVpL37-80">
          <mxGeometry width="50" height="50" relative="1" as="geometry">
            <mxPoint x="5.7142857142857135" y="4.5" as="sourcePoint" />
            <mxPoint x="11.428571428571427" y="1.5" as="targetPoint" />
          </mxGeometry>
        </mxCell>
        <mxCell id="zauIGiu-Af3dXEBVpL37-82" value="" style="group" vertex="1" connectable="0" parent="1">
          <mxGeometry x="270" y="302.5" width="10" height="7.5" as="geometry" />
        </mxCell>
        <mxCell id="zauIGiu-Af3dXEBVpL37-83" value="" style="ellipse;whiteSpace=wrap;html=1;aspect=fixed;fillStyle=auto;" vertex="1" parent="zauIGiu-Af3dXEBVpL37-82">
          <mxGeometry y="4.5" width="1.5" height="1.5" as="geometry" />
        </mxCell>
        <mxCell id="zauIGiu-Af3dXEBVpL37-84" value="" style="ellipse;whiteSpace=wrap;html=1;aspect=fixed;fillStyle=auto;" vertex="1" parent="zauIGiu-Af3dXEBVpL37-82">
          <mxGeometry x="7.142857142857142" width="1.5" height="1.5" as="geometry" />
        </mxCell>
        <mxCell id="zauIGiu-Af3dXEBVpL37-85" value="" style="endArrow=none;html=1;rounded=0;strokeWidth=1;entryX=0;entryY=1;entryDx=0;entryDy=0;exitX=1;exitY=0;exitDx=0;exitDy=0;" edge="1" parent="zauIGiu-Af3dXEBVpL37-82" source="zauIGiu-Af3dXEBVpL37-83" target="zauIGiu-Af3dXEBVpL37-84">
          <mxGeometry width="50" height="50" relative="1" as="geometry">
            <mxPoint x="2.8571428571428568" y="4.5" as="sourcePoint" />
            <mxPoint x="5.7142857142857135" y="1.5" as="targetPoint" />
          </mxGeometry>
        </mxCell>
        <mxCell id="zauIGiu-Af3dXEBVpL37-86" value="" style="group" vertex="1" connectable="0" parent="1">
          <mxGeometry x="380" y="311.88" width="50" height="53.75" as="geometry" />
        </mxCell>
        <mxCell id="zauIGiu-Af3dXEBVpL37-87" value="" style="ellipse;whiteSpace=wrap;html=1;aspect=fixed;fillStyle=auto;" vertex="1" parent="zauIGiu-Af3dXEBVpL37-86">
          <mxGeometry y="4.5" width="3" height="3" as="geometry" />
        </mxCell>
        <mxCell id="zauIGiu-Af3dXEBVpL37-88" value="" style="ellipse;whiteSpace=wrap;html=1;aspect=fixed;fillStyle=auto;" vertex="1" parent="zauIGiu-Af3dXEBVpL37-86">
          <mxGeometry x="14.285714285714285" width="3" height="3" as="geometry" />
        </mxCell>
        <mxCell id="zauIGiu-Af3dXEBVpL37-89" value="" style="endArrow=none;html=1;rounded=0;strokeWidth=1;entryX=0;entryY=1;entryDx=0;entryDy=0;exitX=1;exitY=0;exitDx=0;exitDy=0;" edge="1" parent="zauIGiu-Af3dXEBVpL37-86" source="zauIGiu-Af3dXEBVpL37-87" target="zauIGiu-Af3dXEBVpL37-88">
          <mxGeometry width="50" height="50" relative="1" as="geometry">
            <mxPoint x="5.7142857142857135" y="4.5" as="sourcePoint" />
            <mxPoint x="11.428571428571427" y="1.5" as="targetPoint" />
          </mxGeometry>
        </mxCell>
        <mxCell id="zauIGiu-Af3dXEBVpL37-90" value="" style="ellipse;whiteSpace=wrap;html=1;aspect=fixed;fillStyle=auto;fillColor=none;" vertex="1" parent="zauIGiu-Af3dXEBVpL37-86">
          <mxGeometry x="-7.329999999999984" y="-10.810000000000002" width="24.62" height="24.62" as="geometry" />
        </mxCell>
        <mxCell id="zauIGiu-Af3dXEBVpL37-92" value="" style="endArrow=none;html=1;rounded=0;strokeWidth=1;entryX=0.5;entryY=1;entryDx=0;entryDy=0;exitX=0.283;exitY=0.954;exitDx=0;exitDy=0;exitPerimeter=0;" edge="1" parent="1" source="zauIGiu-Af3dXEBVpL37-94" target="zauIGiu-Af3dXEBVpL37-90">
          <mxGeometry width="50" height="50" relative="1" as="geometry">
            <mxPoint x="520" y="350" as="sourcePoint" />
            <mxPoint x="440" y="450" as="targetPoint" />
          </mxGeometry>
        </mxCell>
        <mxCell id="zauIGiu-Af3dXEBVpL37-93" value="" style="endArrow=none;html=1;rounded=0;strokeWidth=1;entryX=0.5;entryY=0;entryDx=0;entryDy=0;exitX=0;exitY=0;exitDx=0;exitDy=0;" edge="1" parent="1" source="zauIGiu-Af3dXEBVpL37-94" target="zauIGiu-Af3dXEBVpL37-90">
          <mxGeometry width="50" height="50" relative="1" as="geometry">
            <mxPoint x="510" y="270" as="sourcePoint" />
            <mxPoint x="440" y="450" as="targetPoint" />
          </mxGeometry>
        </mxCell>
        <mxCell id="zauIGiu-Af3dXEBVpL37-94" value="" style="ellipse;whiteSpace=wrap;html=1;aspect=fixed;fillStyle=auto;strokeColor=#000000;fillColor=none;" vertex="1" parent="1">
          <mxGeometry x="497.5" y="180" width="192.5" height="192.5" as="geometry" />
        </mxCell>
        <mxCell id="zauIGiu-Af3dXEBVpL37-96" value="" style="group" vertex="1" connectable="0" parent="1">
          <mxGeometry x="310" y="342.5" width="20" height="7.5" as="geometry" />
        </mxCell>
        <mxCell id="zauIGiu-Af3dXEBVpL37-97" value="" style="ellipse;whiteSpace=wrap;html=1;aspect=fixed;fillStyle=auto;" vertex="1" parent="zauIGiu-Af3dXEBVpL37-96">
          <mxGeometry y="4.5" width="3" height="3" as="geometry" />
        </mxCell>
        <mxCell id="zauIGiu-Af3dXEBVpL37-98" value="" style="ellipse;whiteSpace=wrap;html=1;aspect=fixed;fillStyle=auto;" vertex="1" parent="zauIGiu-Af3dXEBVpL37-96">
          <mxGeometry x="14.285714285714285" width="3" height="3" as="geometry" />
        </mxCell>
        <mxCell id="zauIGiu-Af3dXEBVpL37-99" value="" style="endArrow=none;html=1;rounded=0;strokeWidth=1;entryX=0;entryY=1;entryDx=0;entryDy=0;exitX=1;exitY=0;exitDx=0;exitDy=0;" edge="1" parent="zauIGiu-Af3dXEBVpL37-96" source="zauIGiu-Af3dXEBVpL37-97" target="zauIGiu-Af3dXEBVpL37-98">
          <mxGeometry width="50" height="50" relative="1" as="geometry">
            <mxPoint x="5.7142857142857135" y="4.5" as="sourcePoint" />
            <mxPoint x="11.428571428571427" y="1.5" as="targetPoint" />
          </mxGeometry>
        </mxCell>
        <mxCell id="zauIGiu-Af3dXEBVpL37-136" value="" style="group" vertex="1" connectable="0" parent="1">
          <mxGeometry x="460" y="580" width="300" height="300" as="geometry" />
        </mxCell>
        <mxCell id="zauIGiu-Af3dXEBVpL37-95" value="" style="ellipse;whiteSpace=wrap;html=1;aspect=fixed;fillStyle=auto;strokeColor=#A50040;fillColor=#d80073;fontColor=#ffffff;" vertex="1" parent="zauIGiu-Af3dXEBVpL37-136">
          <mxGeometry x="180" y="15" width="90" height="90" as="geometry" />
        </mxCell>
        <mxCell id="zauIGiu-Af3dXEBVpL37-112" value="" style="ellipse;whiteSpace=wrap;html=1;aspect=fixed;fillStyle=auto;strokeColor=#A50040;fillColor=#d80073;fontColor=#ffffff;direction=south;" vertex="1" parent="zauIGiu-Af3dXEBVpL37-136">
          <mxGeometry y="170" width="90" height="90" as="geometry" />
        </mxCell>
        <mxCell id="zauIGiu-Af3dXEBVpL37-113" value="" style="endArrow=none;html=1;rounded=0;strokeWidth=3;entryX=0;entryY=1;entryDx=0;entryDy=0;" edge="1" parent="zauIGiu-Af3dXEBVpL37-136" target="zauIGiu-Af3dXEBVpL37-95">
          <mxGeometry width="50" height="50" relative="1" as="geometry">
            <mxPoint x="180" y="100" as="sourcePoint" />
            <mxPoint x="-20" y="-30" as="targetPoint" />
          </mxGeometry>
        </mxCell>
        <mxCell id="zauIGiu-Af3dXEBVpL37-117" value="" style="endArrow=none;html=1;rounded=0;strokeWidth=3;" edge="1" parent="zauIGiu-Af3dXEBVpL37-136">
          <mxGeometry width="50" height="50" relative="1" as="geometry">
            <mxPoint x="130" y="80" as="sourcePoint" />
            <mxPoint x="180" y="100" as="targetPoint" />
          </mxGeometry>
        </mxCell>
        <mxCell id="zauIGiu-Af3dXEBVpL37-118" value="" style="endArrow=none;html=1;rounded=0;strokeWidth=3;" edge="1" parent="zauIGiu-Af3dXEBVpL37-136">
          <mxGeometry width="50" height="50" relative="1" as="geometry">
            <mxPoint x="170" y="150" as="sourcePoint" />
            <mxPoint x="130" y="80" as="targetPoint" />
          </mxGeometry>
        </mxCell>
        <mxCell id="zauIGiu-Af3dXEBVpL37-119" value="" style="endArrow=none;html=1;rounded=0;strokeWidth=3;" edge="1" parent="zauIGiu-Af3dXEBVpL37-136">
          <mxGeometry width="50" height="50" relative="1" as="geometry">
            <mxPoint x="100" y="100" as="sourcePoint" />
            <mxPoint x="170" y="150" as="targetPoint" />
          </mxGeometry>
        </mxCell>
        <mxCell id="zauIGiu-Af3dXEBVpL37-120" value="" style="endArrow=none;html=1;rounded=0;strokeWidth=3;" edge="1" parent="zauIGiu-Af3dXEBVpL37-136">
          <mxGeometry width="50" height="50" relative="1" as="geometry">
            <mxPoint x="140" y="170" as="sourcePoint" />
            <mxPoint x="100" y="100" as="targetPoint" />
          </mxGeometry>
        </mxCell>
        <mxCell id="zauIGiu-Af3dXEBVpL37-121" value="" style="endArrow=none;html=1;rounded=0;strokeWidth=3;" edge="1" parent="zauIGiu-Af3dXEBVpL37-136">
          <mxGeometry width="50" height="50" relative="1" as="geometry">
            <mxPoint x="80" y="130" as="sourcePoint" />
            <mxPoint x="140" y="170" as="targetPoint" />
          </mxGeometry>
        </mxCell>
        <mxCell id="zauIGiu-Af3dXEBVpL37-122" value="" style="endArrow=none;html=1;rounded=0;strokeWidth=3;" edge="1" parent="zauIGiu-Af3dXEBVpL37-136">
          <mxGeometry width="50" height="50" relative="1" as="geometry">
            <mxPoint x="90" y="170" as="sourcePoint" />
            <mxPoint x="80" y="130" as="targetPoint" />
          </mxGeometry>
        </mxCell>
        <mxCell id="zauIGiu-Af3dXEBVpL37-123" value="" style="endArrow=none;html=1;rounded=0;strokeWidth=3;" edge="1" parent="zauIGiu-Af3dXEBVpL37-136" source="zauIGiu-Af3dXEBVpL37-112">
          <mxGeometry width="50" height="50" relative="1" as="geometry">
            <mxPoint x="-70" y="20" as="sourcePoint" />
            <mxPoint x="90" y="170" as="targetPoint" />
          </mxGeometry>
        </mxCell>
        <mxCell id="zauIGiu-Af3dXEBVpL37-124" value="" style="endArrow=classic;html=1;rounded=0;strokeWidth=3;" edge="1" parent="zauIGiu-Af3dXEBVpL37-136">
          <mxGeometry width="50" height="50" relative="1" as="geometry">
            <mxPoint x="90" y="270" as="sourcePoint" />
            <mxPoint x="270" y="110" as="targetPoint" />
          </mxGeometry>
        </mxCell>
        <mxCell id="zauIGiu-Af3dXEBVpL37-126" value="" style="endArrow=none;dashed=1;html=1;dashPattern=1 3;strokeWidth=2;rounded=0;" edge="1" parent="zauIGiu-Af3dXEBVpL37-136" source="zauIGiu-Af3dXEBVpL37-95">
          <mxGeometry width="50" height="50" relative="1" as="geometry">
            <mxPoint x="-70" y="20" as="sourcePoint" />
            <mxPoint x="300" y="140" as="targetPoint" />
          </mxGeometry>
        </mxCell>
        <mxCell id="zauIGiu-Af3dXEBVpL37-127" value="" style="endArrow=none;dashed=1;html=1;dashPattern=1 3;strokeWidth=2;rounded=0;entryX=0.956;entryY=0.289;entryDx=0;entryDy=0;entryPerimeter=0;" edge="1" parent="zauIGiu-Af3dXEBVpL37-136" target="zauIGiu-Af3dXEBVpL37-112">
          <mxGeometry width="50" height="50" relative="1" as="geometry">
            <mxPoint x="100" y="300" as="sourcePoint" />
            <mxPoint x="-20" y="-30" as="targetPoint" />
          </mxGeometry>
        </mxCell>
        <mxCell id="zauIGiu-Af3dXEBVpL37-128" value="&lt;b&gt;&lt;font style=&quot;font-size: 50px;&quot;&gt;Q&lt;/font&gt;&lt;/b&gt;" style="text;html=1;align=center;verticalAlign=middle;resizable=0;points=[];autosize=1;strokeColor=none;fillColor=none;" vertex="1" parent="zauIGiu-Af3dXEBVpL37-136">
          <mxGeometry x="175" y="190" width="60" height="70" as="geometry" />
        </mxCell>
        <mxCell id="zauIGiu-Af3dXEBVpL37-129" value="" style="endArrow=classic;html=1;rounded=0;strokeWidth=3;fontSize=50;" edge="1" parent="zauIGiu-Af3dXEBVpL37-136">
          <mxGeometry width="50" height="50" relative="1" as="geometry">
            <mxPoint x="10" y="140" as="sourcePoint" />
            <mxPoint x="70" y="90" as="targetPoint" />
          </mxGeometry>
        </mxCell>
        <mxCell id="zauIGiu-Af3dXEBVpL37-130" value="" style="endArrow=classic;html=1;rounded=0;strokeWidth=3;fontSize=50;" edge="1" parent="zauIGiu-Af3dXEBVpL37-136">
          <mxGeometry width="50" height="50" relative="1" as="geometry">
            <mxPoint x="170" y="10" as="sourcePoint" />
            <mxPoint x="110" y="60" as="targetPoint" />
          </mxGeometry>
        </mxCell>
        <mxCell id="zauIGiu-Af3dXEBVpL37-134" value="&lt;font style=&quot;font-size: 30px;&quot;&gt;F&lt;/font&gt;" style="text;html=1;align=center;verticalAlign=middle;resizable=0;points=[];autosize=1;strokeColor=none;fillColor=none;fontSize=50;" vertex="1" parent="zauIGiu-Af3dXEBVpL37-136">
          <mxGeometry y="65" width="40" height="70" as="geometry" />
        </mxCell>
        <mxCell id="zauIGiu-Af3dXEBVpL37-135" value="F" style="text;html=1;align=center;verticalAlign=middle;resizable=0;points=[];autosize=1;strokeColor=none;fillColor=none;fontSize=30;" vertex="1" parent="zauIGiu-Af3dXEBVpL37-136">
          <mxGeometry x="110" width="40" height="50" as="geometry" />
        </mxCell>
        <mxCell id="zauIGiu-Af3dXEBVpL37-137" value="" style="group" vertex="1" connectable="0" parent="1">
          <mxGeometry x="90" y="690" width="140" height="120" as="geometry" />
        </mxCell>
        <mxCell id="zauIGiu-Af3dXEBVpL37-138" value="" style="ellipse;whiteSpace=wrap;html=1;aspect=fixed;fillStyle=auto;strokeColor=#A50040;fillColor=#d80073;fontColor=#ffffff;" vertex="1" parent="zauIGiu-Af3dXEBVpL37-137">
          <mxGeometry x="84" y="6" width="36" height="36" as="geometry" />
        </mxCell>
        <mxCell id="zauIGiu-Af3dXEBVpL37-139" value="" style="ellipse;whiteSpace=wrap;html=1;aspect=fixed;fillStyle=auto;strokeColor=#A50040;fillColor=#d80073;fontColor=#ffffff;direction=south;" vertex="1" parent="zauIGiu-Af3dXEBVpL37-137">
          <mxGeometry y="68" width="36" height="36" as="geometry" />
        </mxCell>
        <mxCell id="zauIGiu-Af3dXEBVpL37-140" value="" style="endArrow=none;html=1;rounded=0;strokeWidth=3;entryX=0;entryY=1;entryDx=0;entryDy=0;" edge="1" parent="zauIGiu-Af3dXEBVpL37-137" target="zauIGiu-Af3dXEBVpL37-138">
          <mxGeometry width="50" height="50" relative="1" as="geometry">
            <mxPoint x="84" y="40" as="sourcePoint" />
            <mxPoint x="-9.333333333333334" y="-12" as="targetPoint" />
          </mxGeometry>
        </mxCell>
        <mxCell id="zauIGiu-Af3dXEBVpL37-141" value="" style="endArrow=none;html=1;rounded=0;strokeWidth=3;" edge="1" parent="zauIGiu-Af3dXEBVpL37-137">
          <mxGeometry width="50" height="50" relative="1" as="geometry">
            <mxPoint x="60.666666666666664" y="32" as="sourcePoint" />
            <mxPoint x="84" y="40" as="targetPoint" />
          </mxGeometry>
        </mxCell>
        <mxCell id="zauIGiu-Af3dXEBVpL37-142" value="" style="endArrow=none;html=1;rounded=0;strokeWidth=3;" edge="1" parent="zauIGiu-Af3dXEBVpL37-137">
          <mxGeometry width="50" height="50" relative="1" as="geometry">
            <mxPoint x="79.33333333333333" y="60" as="sourcePoint" />
            <mxPoint x="60.666666666666664" y="32" as="targetPoint" />
          </mxGeometry>
        </mxCell>
        <mxCell id="zauIGiu-Af3dXEBVpL37-143" value="" style="endArrow=none;html=1;rounded=0;strokeWidth=3;" edge="1" parent="zauIGiu-Af3dXEBVpL37-137">
          <mxGeometry width="50" height="50" relative="1" as="geometry">
            <mxPoint x="46.666666666666664" y="40" as="sourcePoint" />
            <mxPoint x="79.33333333333333" y="60" as="targetPoint" />
          </mxGeometry>
        </mxCell>
        <mxCell id="zauIGiu-Af3dXEBVpL37-144" value="" style="endArrow=none;html=1;rounded=0;strokeWidth=3;" edge="1" parent="zauIGiu-Af3dXEBVpL37-137">
          <mxGeometry width="50" height="50" relative="1" as="geometry">
            <mxPoint x="65.33333333333333" y="68" as="sourcePoint" />
            <mxPoint x="46.666666666666664" y="40" as="targetPoint" />
          </mxGeometry>
        </mxCell>
        <mxCell id="zauIGiu-Af3dXEBVpL37-145" value="" style="endArrow=none;html=1;rounded=0;strokeWidth=3;" edge="1" parent="zauIGiu-Af3dXEBVpL37-137">
          <mxGeometry width="50" height="50" relative="1" as="geometry">
            <mxPoint x="37.333333333333336" y="52" as="sourcePoint" />
            <mxPoint x="65.33333333333333" y="68" as="targetPoint" />
          </mxGeometry>
        </mxCell>
        <mxCell id="zauIGiu-Af3dXEBVpL37-146" value="" style="endArrow=none;html=1;rounded=0;strokeWidth=3;" edge="1" parent="zauIGiu-Af3dXEBVpL37-137">
          <mxGeometry width="50" height="50" relative="1" as="geometry">
            <mxPoint x="42" y="68" as="sourcePoint" />
            <mxPoint x="37.333333333333336" y="52" as="targetPoint" />
          </mxGeometry>
        </mxCell>
        <mxCell id="zauIGiu-Af3dXEBVpL37-147" value="" style="endArrow=none;html=1;rounded=0;strokeWidth=3;" edge="1" parent="zauIGiu-Af3dXEBVpL37-137" source="zauIGiu-Af3dXEBVpL37-139">
          <mxGeometry width="50" height="50" relative="1" as="geometry">
            <mxPoint x="-32.666666666666664" y="8" as="sourcePoint" />
            <mxPoint x="42" y="68" as="targetPoint" />
          </mxGeometry>
        </mxCell>
        <mxCell id="zauIGiu-Af3dXEBVpL37-148" value="" style="endArrow=classic;html=1;rounded=0;strokeWidth=3;" edge="1" parent="zauIGiu-Af3dXEBVpL37-137">
          <mxGeometry width="50" height="50" relative="1" as="geometry">
            <mxPoint x="42" y="108" as="sourcePoint" />
            <mxPoint x="126" y="44" as="targetPoint" />
          </mxGeometry>
        </mxCell>
        <mxCell id="zauIGiu-Af3dXEBVpL37-149" value="" style="endArrow=none;dashed=1;html=1;dashPattern=1 3;strokeWidth=2;rounded=0;" edge="1" parent="zauIGiu-Af3dXEBVpL37-137" source="zauIGiu-Af3dXEBVpL37-138">
          <mxGeometry width="50" height="50" relative="1" as="geometry">
            <mxPoint x="-32.666666666666664" y="8" as="sourcePoint" />
            <mxPoint x="140" y="56" as="targetPoint" />
          </mxGeometry>
        </mxCell>
        <mxCell id="zauIGiu-Af3dXEBVpL37-150" value="" style="endArrow=none;dashed=1;html=1;dashPattern=1 3;strokeWidth=2;rounded=0;entryX=1;entryY=0;entryDx=0;entryDy=0;" edge="1" parent="zauIGiu-Af3dXEBVpL37-137" target="zauIGiu-Af3dXEBVpL37-139">
          <mxGeometry width="50" height="50" relative="1" as="geometry">
            <mxPoint x="46.666666666666664" y="120" as="sourcePoint" />
            <mxPoint x="-9.333333333333334" y="-12" as="targetPoint" />
          </mxGeometry>
        </mxCell>
        <mxCell id="zauIGiu-Af3dXEBVpL37-151" value="&lt;b&gt;&lt;font style=&quot;font-size: 50px;&quot;&gt;Q&lt;/font&gt;&lt;/b&gt;" style="text;html=1;align=center;verticalAlign=middle;resizable=0;points=[];autosize=1;strokeColor=none;fillColor=none;" vertex="1" parent="zauIGiu-Af3dXEBVpL37-137">
          <mxGeometry x="81.66666666666667" y="76" width="60" height="70" as="geometry" />
        </mxCell>
        <mxCell id="zauIGiu-Af3dXEBVpL37-152" value="" style="endArrow=classic;html=1;rounded=0;strokeWidth=3;fontSize=50;" edge="1" parent="zauIGiu-Af3dXEBVpL37-137">
          <mxGeometry width="50" height="50" relative="1" as="geometry">
            <mxPoint x="4.666666666666667" y="56" as="sourcePoint" />
            <mxPoint x="32.666666666666664" y="36" as="targetPoint" />
          </mxGeometry>
        </mxCell>
        <mxCell id="zauIGiu-Af3dXEBVpL37-153" value="" style="endArrow=classic;html=1;rounded=0;strokeWidth=3;fontSize=50;" edge="1" parent="zauIGiu-Af3dXEBVpL37-137">
          <mxGeometry width="50" height="50" relative="1" as="geometry">
            <mxPoint x="79.33333333333333" y="4" as="sourcePoint" />
            <mxPoint x="51.333333333333336" y="24" as="targetPoint" />
          </mxGeometry>
        </mxCell>
        <mxCell id="zauIGiu-Af3dXEBVpL37-154" value="&lt;font style=&quot;font-size: 30px;&quot;&gt;F&lt;/font&gt;" style="text;html=1;align=center;verticalAlign=middle;resizable=0;points=[];autosize=1;strokeColor=none;fillColor=none;fontSize=50;" vertex="1" parent="zauIGiu-Af3dXEBVpL37-137">
          <mxGeometry y="26" width="40" height="70" as="geometry" />
        </mxCell>
        <mxCell id="zauIGiu-Af3dXEBVpL37-155" value="F" style="text;html=1;align=center;verticalAlign=middle;resizable=0;points=[];autosize=1;strokeColor=none;fillColor=none;fontSize=30;" vertex="1" parent="zauIGiu-Af3dXEBVpL37-137">
          <mxGeometry x="51.333333333333336" width="40" height="50" as="geometry" />
        </mxCell>
        <mxCell id="zauIGiu-Af3dXEBVpL37-263" value="" style="group" vertex="1" connectable="0" parent="1">
          <mxGeometry x="530" y="200" width="140" height="150" as="geometry" />
        </mxCell>
        <mxCell id="zauIGiu-Af3dXEBVpL37-264" value="" style="ellipse;whiteSpace=wrap;html=1;aspect=fixed;fillStyle=auto;strokeColor=#A50040;fillColor=#d80073;fontColor=#ffffff;" vertex="1" parent="zauIGiu-Af3dXEBVpL37-263">
          <mxGeometry x="84" y="7.5" width="40.74074074074073" height="40.74074074074073" as="geometry" />
        </mxCell>
        <mxCell id="zauIGiu-Af3dXEBVpL37-265" value="" style="ellipse;whiteSpace=wrap;html=1;aspect=fixed;fillStyle=auto;strokeColor=#A50040;fillColor=#d80073;fontColor=#ffffff;direction=south;" vertex="1" parent="zauIGiu-Af3dXEBVpL37-263">
          <mxGeometry y="85" width="40.74074074074073" height="40.74074074074073" as="geometry" />
        </mxCell>
        <mxCell id="zauIGiu-Af3dXEBVpL37-266" value="" style="endArrow=none;html=1;rounded=0;strokeWidth=3;entryX=0;entryY=1;entryDx=0;entryDy=0;" edge="1" parent="zauIGiu-Af3dXEBVpL37-263" target="zauIGiu-Af3dXEBVpL37-264">
          <mxGeometry width="50" height="50" relative="1" as="geometry">
            <mxPoint x="84" y="50" as="sourcePoint" />
            <mxPoint x="-9.333333333333332" y="-15" as="targetPoint" />
          </mxGeometry>
        </mxCell>
        <mxCell id="zauIGiu-Af3dXEBVpL37-267" value="" style="endArrow=none;html=1;rounded=0;strokeWidth=3;" edge="1" parent="zauIGiu-Af3dXEBVpL37-263">
          <mxGeometry width="50" height="50" relative="1" as="geometry">
            <mxPoint x="60.66666666666666" y="40" as="sourcePoint" />
            <mxPoint x="84" y="50" as="targetPoint" />
          </mxGeometry>
        </mxCell>
        <mxCell id="zauIGiu-Af3dXEBVpL37-268" value="" style="endArrow=none;html=1;rounded=0;strokeWidth=3;" edge="1" parent="zauIGiu-Af3dXEBVpL37-263">
          <mxGeometry width="50" height="50" relative="1" as="geometry">
            <mxPoint x="79.33333333333333" y="75" as="sourcePoint" />
            <mxPoint x="60.66666666666666" y="40" as="targetPoint" />
          </mxGeometry>
        </mxCell>
        <mxCell id="zauIGiu-Af3dXEBVpL37-269" value="" style="endArrow=none;html=1;rounded=0;strokeWidth=3;" edge="1" parent="zauIGiu-Af3dXEBVpL37-263">
          <mxGeometry width="50" height="50" relative="1" as="geometry">
            <mxPoint x="46.666666666666664" y="50" as="sourcePoint" />
            <mxPoint x="79.33333333333333" y="75" as="targetPoint" />
          </mxGeometry>
        </mxCell>
        <mxCell id="zauIGiu-Af3dXEBVpL37-270" value="" style="endArrow=none;html=1;rounded=0;strokeWidth=3;" edge="1" parent="zauIGiu-Af3dXEBVpL37-263">
          <mxGeometry width="50" height="50" relative="1" as="geometry">
            <mxPoint x="65.33333333333333" y="85" as="sourcePoint" />
            <mxPoint x="46.666666666666664" y="50" as="targetPoint" />
          </mxGeometry>
        </mxCell>
        <mxCell id="zauIGiu-Af3dXEBVpL37-271" value="" style="endArrow=none;html=1;rounded=0;strokeWidth=3;" edge="1" parent="zauIGiu-Af3dXEBVpL37-263">
          <mxGeometry width="50" height="50" relative="1" as="geometry">
            <mxPoint x="37.33333333333333" y="65" as="sourcePoint" />
            <mxPoint x="65.33333333333333" y="85" as="targetPoint" />
          </mxGeometry>
        </mxCell>
        <mxCell id="zauIGiu-Af3dXEBVpL37-272" value="" style="endArrow=none;html=1;rounded=0;strokeWidth=3;" edge="1" parent="zauIGiu-Af3dXEBVpL37-263">
          <mxGeometry width="50" height="50" relative="1" as="geometry">
            <mxPoint x="42" y="85" as="sourcePoint" />
            <mxPoint x="37.33333333333333" y="65" as="targetPoint" />
          </mxGeometry>
        </mxCell>
        <mxCell id="zauIGiu-Af3dXEBVpL37-273" value="" style="endArrow=none;html=1;rounded=0;strokeWidth=3;" edge="1" parent="zauIGiu-Af3dXEBVpL37-263" source="zauIGiu-Af3dXEBVpL37-265">
          <mxGeometry width="50" height="50" relative="1" as="geometry">
            <mxPoint x="-32.666666666666664" y="10" as="sourcePoint" />
            <mxPoint x="42" y="85" as="targetPoint" />
          </mxGeometry>
        </mxCell>
        <mxCell id="zauIGiu-Af3dXEBVpL37-274" value="" style="endArrow=classic;html=1;rounded=0;strokeWidth=3;" edge="1" parent="zauIGiu-Af3dXEBVpL37-263">
          <mxGeometry width="50" height="50" relative="1" as="geometry">
            <mxPoint x="42" y="135" as="sourcePoint" />
            <mxPoint x="126" y="55" as="targetPoint" />
          </mxGeometry>
        </mxCell>
        <mxCell id="zauIGiu-Af3dXEBVpL37-275" value="" style="endArrow=none;dashed=1;html=1;dashPattern=1 3;strokeWidth=2;rounded=0;" edge="1" parent="zauIGiu-Af3dXEBVpL37-263">
          <mxGeometry width="50" height="50" relative="1" as="geometry">
            <mxPoint x="120" y="50" as="sourcePoint" />
            <mxPoint x="139.99999999999997" y="70" as="targetPoint" />
          </mxGeometry>
        </mxCell>
        <mxCell id="zauIGiu-Af3dXEBVpL37-276" value="" style="endArrow=none;dashed=1;html=1;dashPattern=1 3;strokeWidth=2;rounded=0;entryX=0.971;entryY=0.313;entryDx=0;entryDy=0;entryPerimeter=0;" edge="1" parent="zauIGiu-Af3dXEBVpL37-263" target="zauIGiu-Af3dXEBVpL37-265">
          <mxGeometry width="50" height="50" relative="1" as="geometry">
            <mxPoint x="46.666666666666664" y="150" as="sourcePoint" />
            <mxPoint x="-9.333333333333332" y="-15" as="targetPoint" />
          </mxGeometry>
        </mxCell>
        <mxCell id="zauIGiu-Af3dXEBVpL37-277" value="&lt;b&gt;&lt;font style=&quot;font-size: 30px;&quot;&gt;Q&lt;/font&gt;&lt;/b&gt;" style="text;html=1;align=center;verticalAlign=middle;resizable=0;points=[];autosize=1;strokeColor=none;fillColor=none;" vertex="1" parent="zauIGiu-Af3dXEBVpL37-263">
          <mxGeometry x="84.99999999999999" y="101.81818181818181" width="50" height="50" as="geometry" />
        </mxCell>
        <mxCell id="zauIGiu-Af3dXEBVpL37-278" value="" style="endArrow=classic;html=1;rounded=0;strokeWidth=3;fontSize=50;" edge="1" parent="zauIGiu-Af3dXEBVpL37-263">
          <mxGeometry width="50" height="50" relative="1" as="geometry">
            <mxPoint x="4.666666666666666" y="70" as="sourcePoint" />
            <mxPoint x="32.666666666666664" y="45" as="targetPoint" />
          </mxGeometry>
        </mxCell>
        <mxCell id="zauIGiu-Af3dXEBVpL37-279" value="" style="endArrow=classic;html=1;rounded=0;strokeWidth=3;fontSize=50;" edge="1" parent="zauIGiu-Af3dXEBVpL37-263">
          <mxGeometry width="50" height="50" relative="1" as="geometry">
            <mxPoint x="79.33333333333333" y="5" as="sourcePoint" />
            <mxPoint x="51.33333333333332" y="30" as="targetPoint" />
          </mxGeometry>
        </mxCell>
        <mxCell id="zauIGiu-Af3dXEBVpL37-280" value="&lt;font style=&quot;font-size: 15px;&quot;&gt;F&lt;/font&gt;" style="text;html=1;align=center;verticalAlign=middle;resizable=0;points=[];autosize=1;strokeColor=none;fillColor=none;fontSize=50;" vertex="1" parent="zauIGiu-Af3dXEBVpL37-263">
          <mxGeometry x="-9.996666666666666" y="0.0022727272727252057" width="30" height="70" as="geometry" />
        </mxCell>
        <mxCell id="zauIGiu-Af3dXEBVpL37-281" value="&lt;font style=&quot;font-size: 15px;&quot;&gt;F&lt;/font&gt;" style="text;html=1;align=center;verticalAlign=middle;resizable=0;points=[];autosize=1;strokeColor=none;fillColor=none;fontSize=30;" vertex="1" parent="zauIGiu-Af3dXEBVpL37-263">
          <mxGeometry x="40.74333333333334" y="-29.998636363636365" width="30" height="50" as="geometry" />
        </mxCell>
        <mxCell id="zauIGiu-Af3dXEBVpL37-282" value="x=0" style="text;html=1;align=center;verticalAlign=middle;resizable=0;points=[];autosize=1;strokeColor=none;fillColor=none;fontSize=15;" vertex="1" parent="1">
          <mxGeometry x="195" y="365" width="50" height="30" as="geometry" />
        </mxCell>
        <mxCell id="zauIGiu-Af3dXEBVpL37-283" value="y=0" style="text;html=1;align=center;verticalAlign=middle;resizable=0;points=[];autosize=1;strokeColor=none;fillColor=none;fontSize=15;" vertex="1" parent="1">
          <mxGeometry x="155" y="315" width="50" height="30" as="geometry" />
        </mxCell>
      </root>
    </mxGraphModel>
  </diagram>
</mxfile>
